<svg xmlns="http://www.w3.org/2000/svg" width="65.158" height="55.105" viewBox="0 0 65.158 55.105">
  <defs>
    <style>
      .cls-1 {
        fill: #fff;
      }
    </style>
  </defs>
  <path id="icon_modified_date_1" class="cls-1" d="M6.466,3.987A2.505,2.505,0,0,0,4,6.526V46.6a5.047,5.047,0,0,0,5.01,5.01H29.048v7.514H21.533L31.552,69.144,41.571,59.125H34.057V51.611H54.1A5.047,5.047,0,0,0,59.1,46.6V6.526a2.5,2.5,0,1,0-5.01,0V46.6H31.939a2.263,2.263,0,0,0-.788,0H9.01V6.526A2.505,2.505,0,0,0,6.466,3.987ZM40.133,6.526a3.072,3.072,0,0,0-2.182.905L35.76,9.617l7.729,7.729,2.187-2.187a3.093,3.093,0,0,0,0-4.374L42.32,7.431A3.084,3.084,0,0,0,40.133,6.526Zm-7.465,6.184L21.162,24.215l2.319.773.773,3.865,3.865.773.773,2.319L40.4,20.439ZM18.3,30.639,16.588,35.5l0,.015v0a.77.77,0,0,0,.978,1.022L22.473,34.8Z" transform="translate(-3.986 59.105) rotate(-90)"/>
</svg>
