<svg id="icons_atmospheric_pressure" xmlns="http://www.w3.org/2000/svg" width="15.209" height="10.37" viewBox="0 0 15.209 10.37">
  <path id="icons_atmospheric_pressure-2" data-name="icons_atmospheric_pressure" d="M2.074,0V2.074A6.014,6.014,0,0,0,2.463,4.04a4.626,4.626,0,0,1,.3,1.491A2.692,2.692,0,0,1,2.182,6.87a3.8,3.8,0,0,0-.8,2.117,5.708,5.708,0,0,0,.389,1.923,4.43,4.43,0,0,1,.3,1.534H0l2.765,2.765,2.765-2.765H3.457a5.866,5.866,0,0,0-.389-1.966,4.406,4.406,0,0,1-.3-1.491A2.709,2.709,0,0,1,3.349,7.6a3.725,3.725,0,0,0,.8-2.074,5.763,5.763,0,0,0-.389-1.9,4.725,4.725,0,0,1-.3-1.555V0ZM6.913,0V1.383H10.37V0ZM8.3,3.457V4.839H10.37V3.457ZM6.913,6.913V8.3H10.37V6.913ZM8.3,10.37v1.383H10.37V10.37ZM6.913,13.826v1.383H10.37V13.826Z" transform="translate(0 10.37) rotate(-90)" fill="#0772b1"/>
  <path id="icons_atmospheric_pressure-3" data-name="icons_atmospheric_pressure" d="M0,0V1.383H3.457V0ZM1.383,3.457V4.839H3.457V3.457ZM0,6.913V8.3H3.457V6.913ZM1.383,10.37v1.383H3.457V10.37ZM0,13.826v1.383H3.457V13.826Z" transform="translate(0 3.457) rotate(-90)" fill="#db4a2d"/>
</svg>
