<svg id="icon_send-rfq" xmlns="http://www.w3.org/2000/svg" width="74" height="74" viewBox="0 0 74 74">
    <defs>
        <style>
            .cls-4{fill:#f5f5f5}
        </style>
    </defs>
    <circle id="or-circle" cx="37" cy="37" r="37" style="fill:#fcfcfc"/>
    <g id="or-circle-2" data-name="or-circle" transform="translate(8 8)" style="stroke:#98b3c4;stroke-width:3px;stroke-dasharray:3 3;fill:none">
        <circle cx="29" cy="29" r="29" style="stroke:none"/>
        <circle cx="29" cy="29" r="27.5" style="fill:none"/>
    </g>
    <circle id="or-circle-3" data-name="or-circle" cx="23" cy="23" r="23" transform="translate(14 14)" style="fill:#db4a2d"/>
    <path id="Send_RFQ" data-name="Send RFQ" class="cls-4" d="M-11.22-6.545a1.158 1.158 0 0 0-.754.236.8.8 0 0 0-.291.655.939.939 0 0 0 .215.654 1.376 1.376 0 0 0 .566.363 7.159 7.159 0 0 0 .77.226q.418.1.836.242a4.107 4.107 0 0 1 .77.352 1.524 1.524 0 0 1 .566.61 2.042 2.042 0 0 1 .215.974A2.123 2.123 0 0 1-9.08-.605a2.869 2.869 0 0 1-2 .682 3.235 3.235 0 0 1-2.02-.589 1.963 1.963 0 0 1-.77-1.656h1.65a1.014 1.014 0 0 0 1.155 1.012 1.21 1.21 0 0 0 .836-.275.933.933 0 0 0 .308-.731.818.818 0 0 0-.407-.721 3.041 3.041 0 0 0-.984-.4q-.578-.132-1.161-.319a2.169 2.169 0 0 1-.99-.655 1.818 1.818 0 0 1-.407-1.238 2.059 2.059 0 0 1 .759-1.672 2.964 2.964 0 0 1 1.952-.627 3.121 3.121 0 0 1 1.92.544 2.1 2.1 0 0 1 .792 1.655h-1.694a1.043 1.043 0 0 0-.33-.7 1.073 1.073 0 0 0-.749-.25zM-2.409-7.7v1.188h-2.882V-4.5h2.552v1.188h-2.552v2.123h2.882V0h-4.433v-7.7zm6.609 0h1.553V0H4.2L.726-5.324V0H-.825v-7.7H.726L4.2-2.376zm4.754 6.523h1.056a2.454 2.454 0 0 0 1.881-.715 2.715 2.715 0 0 0 .671-1.936 2.715 2.715 0 0 0-.671-1.936 2.454 2.454 0 0 0-1.881-.715H8.954zm1.056-6.5A4.217 4.217 0 0 1 13-6.622a3.63 3.63 0 0 1 1.138 2.794A3.6 3.6 0 0 1 13-1.045 4.243 4.243 0 0 1 10.01 0H7.4v-7.678zM-8.525 9.942V13h-1.551V5.322h2.827a2.914 2.914 0 0 1 2.049.665 2.149 2.149 0 0 1 .721 1.645 2.31 2.31 0 0 1-.44 1.353 2.269 2.269 0 0 1-1.381.858L-4.345 13h-1.837l-1.837-3.058zm0-3.432v2.244h1.276a1.22 1.22 0 0 0 .891-.3 1.1 1.1 0 0 0 .308-.82 1.1 1.1 0 0 0-.308-.819 1.22 1.22 0 0 0-.891-.3zM-2.937 13V5.322h4.752V6.51h-3.2v2.013h2.441v1.188h-2.442V13zm9.471.077a3.836 3.836 0 0 1-2.794-1.111 3.784 3.784 0 0 1-1.133-2.822 3.774 3.774 0 0 1 1.139-2.821A3.847 3.847 0 0 1 6.54 5.212a3.829 3.829 0 0 1 2.788 1.111 3.777 3.777 0 0 1 1.133 2.816 4.03 4.03 0 0 1-.424 1.848 3.673 3.673 0 0 1-1.171 1.364l1.7 1.98H8.657l-1.133-1.375a4.248 4.248 0 0 1-.99.121zm0-6.446a2.24 2.24 0 0 0-1.7.688 2.539 2.539 0 0 0-.654 1.825 2.539 2.539 0 0 0 .655 1.826 2.24 2.24 0 0 0 1.7.688 2.223 2.223 0 0 0 1.694-.687 2.559 2.559 0 0 0 .649-1.832 2.539 2.539 0 0 0-.649-1.826 2.232 2.232 0 0 0-1.695-.682z" transform="translate(37 31)"/>
    <path id="icons_sort_up" class="cls-4" d="M8.582 17.8 4 13h9.165z" transform="translate(28.123 36.259)"/>
</svg>
