<svg xmlns="http://www.w3.org/2000/svg" width="16.307" height="16.307" viewBox="0 0 16.307 16.307">
    <path data-name="icons_plus_+" d="M12.154 4a8.154 8.154 0 1 0 8.154 8.154A8.163 8.163 0 0 0 12.154 4zm0 1.223a6.931 6.931 0 1 1-6.931 6.931 6.921 6.921 0 0 1 6.931-6.931zm-.01 2.845a.612.612 0 0 0-.6.62v2.854H8.688a.612.612 0 1 0 0 1.223h2.854v2.854a.612.612 0 1 0 1.223 0v-2.854h2.854a.612.612 0 1 0 0-1.223h-2.854V8.688a.612.612 0 0 0-.621-.62z" transform="translate(-4 -4)" style="fill:#0772b1"/>
</svg>
