<svg xmlns="http://www.w3.org/2000/svg" width="16.085" height="11.169" viewBox="0 0 16.085 11.169">
  <g id="icons_passive-components" transform="translate(0 11.169) rotate(-90)">
    <path id="Path_13512" data-name="Path 13512" d="M4.061,1.128V14.662c0,.623-.242,1.128-.541,1.128H.541c-.3,0-.541-.5-.541-1.128V1.128C0,.5.242,0,.541,0H3.519C3.818,0,4.061.5,4.061,1.128Z" transform="translate(3.757 0)" fill="none"/>
    <path id="Path_13518" data-name="Path 13518" d="M10.954,4.992a.252.252,0,0,0,.215-.277.252.252,0,0,0-.215-.277H9.88V3.328h1.074a.252.252,0,0,0,.215-.277.252.252,0,0,0-.215-.277H9.88V2.5a.756.756,0,0,0-.644-.832H9.021V1.387A1.261,1.261,0,0,0,7.947,0H3.222A1.261,1.261,0,0,0,2.148,1.387v.277H1.933a.756.756,0,0,0-.644.832v.277H.215A.252.252,0,0,0,0,3.051a.252.252,0,0,0,.215.277H1.289V4.437H.215A.252.252,0,0,0,0,4.715a.252.252,0,0,0,.215.277H1.289V6.1H.215a.286.286,0,0,0,0,.555H1.289V7.765H.215a.286.286,0,0,0,0,.555H1.289V9.429H.215a.286.286,0,0,0,0,.555H1.289v1.109H.215a.286.286,0,0,0,0,.555H1.289v1.109H.215a.286.286,0,0,0,0,.555H1.289v.277a.756.756,0,0,0,.644.832h.215V14.7a1.261,1.261,0,0,0,1.074,1.387H7.947A1.261,1.261,0,0,0,9.021,14.7v-.277h.215a.756.756,0,0,0,.644-.832v-.277h1.074a.286.286,0,0,0,0-.555H9.88V11.648h1.074a.286.286,0,0,0,0-.555H9.88V9.984h1.074a.286.286,0,0,0,0-.555H9.88V8.32h1.074a.286.286,0,0,0,0-.555H9.88V6.656h1.074a.286.286,0,0,0,0-.555H9.88V4.992ZM1.933,13.867a.252.252,0,0,1-.215-.277V2.5a.252.252,0,0,1,.215-.277h.215V13.867Zm6.658.832a.756.756,0,0,1-.644.832H3.222a.756.756,0,0,1-.644-.832V1.387A.756.756,0,0,1,3.222.555H7.947a.756.756,0,0,1,.644.832Zm.859-1.109a.252.252,0,0,1-.215.277H9.021V2.219h.215A.252.252,0,0,1,9.45,2.5Z" transform="translate(0)" fill="#0772b1"/>
    <path id="Path_13521" data-name="Path 13521" d="M1.55,1.181H.258a.279.279,0,0,0-.258.3.279.279,0,0,0,.258.3H1.55a.279.279,0,0,0,.258-.3A.279.279,0,0,0,1.55,1.181Zm1.55,0H2.584a.279.279,0,0,0-.258.3.279.279,0,0,0,.258.3H3.1a.279.279,0,0,0,.258-.3A.279.279,0,0,0,3.1,1.181ZM4.393,0H.258A.279.279,0,0,0,0,.3a.279.279,0,0,0,.258.3H4.393A.279.279,0,0,0,4.651.3.279.279,0,0,0,4.393,0Z" transform="translate(3.167 10.181)" fill="#0772b1"/>
    <path id="Path_13519" data-name="Path 13519" d="M.3,0A.3.3,0,0,0,0,.3v.59a.3.3,0,0,0,.59,0V.3A.3.3,0,0,0,.3,0ZM1.771,0a.3.3,0,0,0-.3.3v.59a.3.3,0,0,0,.59,0V.3A.3.3,0,0,0,1.771,0ZM3.247,0a.3.3,0,0,0-.3.3v.59a.3.3,0,0,0,.59,0V.3A.3.3,0,0,0,3.247,0Z" transform="translate(4.052 13.724)" fill="#db4a2d"/>
    <g id="Group_624" data-name="Group 624" transform="translate(3.409 0.913)">
      <path id="Path_13516" data-name="Path 13516" d="M.59,0a.59.59,0,1,0,.59.59A.59.59,0,0,0,.59,0Z" transform="translate(0.051 0.888) rotate(-45)" fill="#8b8e98"/>
      <path id="Path_13517" data-name="Path 13517" d="M.59,0a.59.59,0,1,0,.59.59A.59.59,0,0,0,.59,0Z" transform="translate(0.295 0.296)" fill="#fafafa"/>
      <path id="Path_13520" data-name="Path 13520" d="M.26,1.512A.886.886,0,1,0,0,.886a.886.886,0,0,0,.26.626ZM.676.677a.3.3,0,1,1,0,.416h0A.3.3,0,0,1,.676.677Z" transform="translate(0 0)" fill="#db4a2d"/>
    </g>
  </g>
</svg>
