<svg id="icons_ovality_sensor" xmlns="http://www.w3.org/2000/svg" width="15.916" height="5.726" viewBox="0 0 15.916 5.726">
  <path id="icons_ovality_sensor-2" data-name="icons_ovality_sensor" d="M2.22,16a.321.321,0,0,0-.084.011l-1.272.318a.318.318,0,0,0,.154.616l.241-.06v2.474C.667,19.436.252,19.5.252,19.5a.318.318,0,1,0,.1.626l.266-.04V21.4a.319.319,0,0,0,.318.318H2.212A.319.319,0,0,0,2.53,21.4V19.839c.476-.053,1.015-.108,1.59-.158v.769a.319.319,0,0,0,.318.318h.954a.319.319,0,0,0,.318-.318v-.883c.426-.022.862-.042,1.3-.052l-.294.441a.317.317,0,0,0-.053.176V21.4a.319.319,0,0,0,.318.318H8.891a.319.319,0,0,0,.318-.318V20.132a.317.317,0,0,0-.053-.176l-.294-.441c.44.01.876.03,1.3.052v.883a.319.319,0,0,0,.318.318h.954a.319.319,0,0,0,.318-.318v-.769c.575.05,1.114.1,1.59.158V21.4a.319.319,0,0,0,.318.318h1.272a.319.319,0,0,0,.318-.318V20.087l.266.04a.317.317,0,1,0,.1-.626s-.415-.065-1.006-.145V16.882l.241.06a.318.318,0,1,0,.154-.616l-1.272-.318a.269.269,0,0,0-.094-.01.317.317,0,0,0-.06.626l.4.1v2.549c-.85-.106-1.942-.226-3.181-.309V17.588a.319.319,0,0,0-.318-.318H5.393a.319.319,0,0,0-.318.318v1.375c-1.239.083-2.331.2-3.181.309V16.723l.4-.1A.318.318,0,0,0,2.22,16Zm3.491,1.91h4.453v1.024q-.9-.05-1.829-.062a.335.335,0,0,0-.153,0c-.082,0-.163,0-.245,0s-.163,0-.245,0a.34.34,0,0,0-.08-.009.386.386,0,0,0-.075.011q-.932.011-1.828.062ZM7.937,19.5c.05,0,.1,0,.149,0l.487.728v.859H7.3v-.859l.487-.728C7.838,19.5,7.888,19.5,7.937,19.5Zm-2.863.114v.522H4.757v-.5Zm5.725,0,.318.02v.5H10.8Zm-8.906.308v1.168H1.258V20C1.441,19.974,1.663,19.947,1.894,19.918Zm12.086,0c.231.029.453.056.636.081v1.087H13.98Z" transform="translate(0.021 -15.996)" fill="#00559a"/>
  <path id="icon_ovality_sensor" d="M20.023,24.931V25.7a.319.319,0,0,0,.318.318H21.3a.319.319,0,0,0,.318-.318v-.883c.426-.022,4.027-.022,4.453,0V25.7a.319.319,0,0,0,.318.318h.954a.319.319,0,0,0,.318-.318v-.769c.575.05.285-.635-.954-.718V22.837a.319.319,0,0,0-.318-.318H21.3a.319.319,0,0,0-.318.318v1.375C19.738,24.3,19.448,24.98,20.023,24.931Zm1.59-1.775h4.453v1.024c-.6-.034-3.856-.034-4.453,0Zm-.636,1.7v.522h-.318v-.5Zm5.725,0,.318.02v.5H26.7Z" transform="translate(-15.881 -21.246)" fill="#db4a2d"/>
</svg>
