<svg id="icons_connectors" xmlns="http://www.w3.org/2000/svg" width="15.917" height="7.54" viewBox="0 0 15.917 7.54">
  <path id="Path_13527" data-name="Path 13527" d="M4.223,18.621a1.048,1.048,0,0,1-1.047-1.047v-.942L1.5,15.374V12.547A1.048,1.048,0,0,1,2.547,11.5h13.4A1.048,1.048,0,0,1,17,12.547v2.827l-1.675,1.257v.942a1.048,1.048,0,0,1-1.047,1.047Z" transform="translate(-1.291 -11.291)" fill="none"/>
  <path id="Path_13528" data-name="Path 13528" d="M15.66,11.419a.839.839,0,0,1,.838.838v2.723L14.99,16.11l-.168.126v1.047a.839.839,0,0,1-.838.838H3.932a.839.839,0,0,1-.838-.838V16.236l-.168-.126L1.419,14.979V12.257a.839.839,0,0,1,.838-.838h13.4m0-.419H2.257A1.257,1.257,0,0,0,1,12.257v2.932l1.675,1.257v.838A1.257,1.257,0,0,0,3.932,18.54H13.985a1.257,1.257,0,0,0,1.257-1.257v-.838l1.675-1.257V12.257A1.257,1.257,0,0,0,15.66,11Z" transform="translate(-1 -11)" fill="#4788c7"/>
  <path id="Path_13529" data-name="Path 13529" d="M12.9,15h.838v1.257H12.9Zm1.675,0h.838v1.257h-.838Zm1.675,0h.838v1.257h-.838Zm-5.026,0h.838v1.257h-.838ZM9.547,15h.838v1.257H9.547ZM8.5,16.466h9.634V19.4H8.5Z" transform="translate(-5.359 -13.325)" fill="#0772b1"/>
  <path id="Path_13530" data-name="Path 13530" d="M17.634,18.419v2.513H8.419V18.419h9.215M18.053,18H8v3.351H18.053V18Z" transform="translate(-5.068 -15.068)" fill="#4788c7"/>
  <path id="Path_13531" data-name="Path 13531" d="M9,18h9.215v.419H9Z" transform="translate(-5.649 -15.068)" fill="#db4a2d"/>
  <path id="Path_13532" data-name="Path 13532" d="M11,18h.838v.838H11Zm1.675,0h.838v.838h-.838Zm1.675,0h.838v.838h-.838Zm1.675,0h.838v.838h-.838ZM17.7,18h.838v.838H17.7Z" transform="translate(-6.811 -15.068)" fill="#fff"/>
  <path id="Path_13533" data-name="Path 13533" d="M17.843,18.419h-.838a.21.21,0,0,1-.209-.209h0A.21.21,0,0,1,17.006,18h.838a.21.21,0,0,1,.209.209h0A.21.21,0,0,1,17.843,18.419Zm-8.8,0H8.209A.21.21,0,0,1,8,18.209H8A.21.21,0,0,1,8.209,18h.838a.21.21,0,0,1,.209.209h0A.21.21,0,0,1,9.047,18.419Zm1.675,0H10.3a.21.21,0,0,1-.209-.209h0A.21.21,0,0,1,10.3,18h.419a.21.21,0,0,1,.209.209h0A.21.21,0,0,1,10.723,18.419Zm1.675,0h-.419a.21.21,0,0,1-.209-.209h0A.21.21,0,0,1,11.979,18H12.4a.21.21,0,0,1,.209.209h0A.21.21,0,0,1,12.4,18.419Zm1.675,0h-.419a.21.21,0,0,1-.209-.209h0A.21.21,0,0,1,13.655,18h.419a.21.21,0,0,1,.209.209h0A.21.21,0,0,1,14.074,18.419Zm1.675,0H15.33a.21.21,0,0,1-.209-.209h0A.21.21,0,0,1,15.33,18h.419a.21.21,0,0,1,.209.209h0A.21.21,0,0,1,15.749,18.419Z" transform="translate(-5.068 -15.068)" fill="#db4a2d"/>
</svg>
