<svg id="icon_integrated_circuit" xmlns="http://www.w3.org/2000/svg" width="15.492" height="15.492" viewBox="0 0 15.492 15.492">
  <path id="icon_integrated_circuit-2" data-name="icon_integrated_circuit" d="M3.227,0V15.492h9.037V0ZM1.291,1.936v.645H0V3.873H1.291v.645H2.582V1.936Zm5.164,0A1.291,1.291,0,1,1,5.164,3.227,1.293,1.293,0,0,1,6.455,1.936Zm6.455,0V4.518H14.2V3.873h1.291V2.582H14.2V1.936ZM1.291,6.455V7.1H0V8.391H1.291v.645H2.582V6.455Zm11.619,0V9.037H14.2V8.391h1.291V7.1H14.2V6.455ZM1.291,10.973v.645H0V12.91H1.291v.645H2.582V10.973Zm11.619,0v2.582H14.2V12.91h1.291V11.619H14.2v-.645Z" transform="translate(15.492) rotate(90)" fill="#00559a"/>
  <path id="icons_integrated_circuit" d="M3.227,0V0ZM1.291,1.936v.645H0V3.873H1.291v.645H2.582V1.936Zm0,4.518V7.1H0V8.391H1.291v.645H2.582V6.455Zm0,4.518v.645H0V12.91H1.291v.645H2.582V10.973Z" transform="translate(15.492) rotate(90)" fill="#db4a2d"/>
</svg>
