<svg id="icons_cables" xmlns="http://www.w3.org/2000/svg" width="16.41" height="13.128" viewBox="0 0 16.41 13.128">
  <path id="icons_cables-2" data-name="icons_cables" d="M9.056,9.531A11.032,11.032,0,0,0,8,14.608a11.032,11.032,0,0,0,1.056,5.077,3.828,3.828,0,0,0,.4-.667,11.834,11.834,0,0,1-.8-4.41,11.834,11.834,0,0,1,.8-4.41A3.908,3.908,0,0,0,9.056,9.531Zm2.626,0a7.377,7.377,0,0,0-.564,1.385,12.379,12.379,0,0,1,.338,1.569,9.875,9.875,0,0,1,.626-2.287A3.827,3.827,0,0,0,11.682,9.531Zm2.626,0a7.377,7.377,0,0,0-.564,1.385,12.379,12.379,0,0,1,.338,1.569,9.875,9.875,0,0,1,.626-2.287A3.827,3.827,0,0,0,14.308,9.531Zm2.626,0a7.377,7.377,0,0,0-.564,1.385,12.378,12.378,0,0,1,.338,1.569,9.875,9.875,0,0,1,.626-2.287A3.827,3.827,0,0,0,16.933,9.531Zm-5.477,7.2a12.38,12.38,0,0,1-.338,1.569,7.378,7.378,0,0,0,.564,1.385,3.828,3.828,0,0,0,.4-.667A9.812,9.812,0,0,1,11.456,16.731Zm2.626,0a12.38,12.38,0,0,1-.338,1.569,7.378,7.378,0,0,0,.564,1.385,3.828,3.828,0,0,0,.4-.667A9.812,9.812,0,0,1,14.082,16.731Z" transform="translate(-5.373 -8.044)" fill="#db4a2d"/>
  <path id="icon_cables" d="M2.954,5A1.781,1.781,0,0,0,1.7,5.585,4.531,4.531,0,0,0,.79,7.031,12,12,0,0,0,0,11.564,12,12,0,0,0,.79,16.1,4.531,4.531,0,0,0,1.7,17.544a1.781,1.781,0,0,0,1.251.585,1.781,1.781,0,0,0,1.251-.585A4.532,4.532,0,0,0,5.118,16.1a12,12,0,0,0,.79-4.533,12,12,0,0,0-.79-4.533,4.531,4.531,0,0,0-.913-1.446A1.781,1.781,0,0,0,2.954,5ZM5.579,5a1.67,1.67,0,0,0-1.067.431,3.951,3.951,0,0,1,.39.5,1.06,1.06,0,0,1,.677-.277c1.354,0,2.3,3.113,2.3,5.908s-.944,5.908-2.3,5.908a1.06,1.06,0,0,1-.677-.277,3.95,3.95,0,0,1-.39.5,1.67,1.67,0,0,0,1.067.431c1.656,0,2.954-2.883,2.954-6.564S7.236,5,5.579,5ZM8.205,5a1.66,1.66,0,0,0-1.067.431,3.838,3.838,0,0,1,.39.5,1.06,1.06,0,0,1,.677-.277c1.354,0,2.3,3.113,2.3,5.908s-.944,5.908-2.3,5.908a1.06,1.06,0,0,1-.677-.277,3.837,3.837,0,0,1-.39.5,1.66,1.66,0,0,0,1.067.431c1.656,0,2.954-2.883,2.954-6.564S9.861,5,8.205,5Zm2.626,0a1.66,1.66,0,0,0-1.067.431,3.838,3.838,0,0,1,.39.5,1.06,1.06,0,0,1,.677-.277c1.354,0,2.3,3.113,2.3,5.908s-.944,5.908-2.3,5.908a1.06,1.06,0,0,1-.677-.277,3.837,3.837,0,0,1-.39.5,1.66,1.66,0,0,0,1.067.431c1.656,0,2.954-2.883,2.954-6.564S12.487,5,10.831,5Zm2.626,0a1.66,1.66,0,0,0-1.067.431,3.838,3.838,0,0,1,.39.5,1.06,1.06,0,0,1,.677-.277c1.354,0,2.3,3.113,2.3,5.908a.328.328,0,0,0,.656,0C16.41,7.883,15.113,5,13.456,5Zm-10.5.656a1.115,1.115,0,0,1,.79.39,3.913,3.913,0,0,1,.769,1.231,11.484,11.484,0,0,1,.738,4.287,11.484,11.484,0,0,1-.738,4.287,3.913,3.913,0,0,1-.769,1.231,1.115,1.115,0,0,1-.79.39,1.115,1.115,0,0,1-.79-.39,3.913,3.913,0,0,1-.769-1.231,11.484,11.484,0,0,1-.738-4.287,11.484,11.484,0,0,1,.738-4.287,3.913,3.913,0,0,1,.769-1.231A1.115,1.115,0,0,1,2.954,5.656Zm.728.831a11.032,11.032,0,0,0-1.056,5.077,11.032,11.032,0,0,0,1.056,5.077,3.828,3.828,0,0,0,.4-.667,11.834,11.834,0,0,1-.8-4.41,11.834,11.834,0,0,1,.8-4.41A3.908,3.908,0,0,0,3.682,6.487Zm2.626,0a7.377,7.377,0,0,0-.564,1.385,12.378,12.378,0,0,1,.338,1.569,9.875,9.875,0,0,1,.626-2.287A3.827,3.827,0,0,0,6.308,6.487Zm2.626,0a7.377,7.377,0,0,0-.564,1.385,12.378,12.378,0,0,1,.338,1.569,9.875,9.875,0,0,1,.626-2.287A3.827,3.827,0,0,0,8.933,6.487Zm2.626,0a7.377,7.377,0,0,0-.564,1.385,12.379,12.379,0,0,1,.338,1.569,9.875,9.875,0,0,1,.626-2.287A3.827,3.827,0,0,0,11.559,6.487Zm-5.477,7.2a12.379,12.379,0,0,1-.338,1.569,7.378,7.378,0,0,0,.564,1.385,3.828,3.828,0,0,0,.4-.667A9.812,9.812,0,0,1,6.082,13.687Zm2.626,0a12.379,12.379,0,0,1-.338,1.569,7.378,7.378,0,0,0,.564,1.385,3.828,3.828,0,0,0,.4-.667A9.812,9.812,0,0,1,8.708,13.687Z" transform="translate(0 -5)" fill="#00559a"/>
</svg>
