<svg id="icon_bitcoin" xmlns="http://www.w3.org/2000/svg" width="13.927" height="14.66" viewBox="0 0 13.927 14.66">
  <path id="icons_bitcoin_cryptocurrency" d="M14.728,2V6.4h1.466V2ZM11.8,3.466V6.4h1.466V3.466ZM8.864,4.932V16.66H10.33V4.932ZM5.932,6.4V16.66H7.4V6.4ZM3,7.864v8.8H4.466v-8.8Zm10.262,0V8.872H11.8v6.812h1.466v.976h1.466V15.652h.367a1.35,1.35,0,0,0,.364-.047,1.871,1.871,0,0,0,.422-3.508A1.729,1.729,0,0,0,15,8.872h-.275V7.864Zm0,2.016h1.1a.914.914,0,0,1,.912.893.868.868,0,0,1-.866.848H13.262Zm2.931.726s0,0,0,.007,0,.006,0,.01Zm-2.931,2.206h1.283a.914.914,0,0,1,.912.893.961.961,0,0,1-.958.939H13.262Z" transform="translate(-3 -2)" fill="#db4a2d"/>
  <path id="icon_bitcoin_cryptocurrency" d="M14.728,2V6.4h1.466V2ZM11.8,3.466V6.4h1.466V3.466ZM8.864,4.932V16.66H10.33V4.932ZM3,7.864v8.8H4.466v-8.8Z" transform="translate(-3 -2)" fill="#0772b1"/>
</svg>
