<svg id="icons_batteries" xmlns="http://www.w3.org/2000/svg" width="16.445" height="10.572" viewBox="0 0 16.445 10.572">
  <path id="icon_batteries" d="M3.762,6a.587.587,0,1,0,0,1.175H14.921a.587.587,0,1,0,0-1.175Zm0,2.349A1.771,1.771,0,0,0,2,10.111v4.7a1.771,1.771,0,0,0,1.762,1.762H14.921a1.771,1.771,0,0,0,1.762-1.762v-4.7a1.771,1.771,0,0,0-1.762-1.762Zm0,1.175H14.921a.578.578,0,0,1,.587.587v4.7a.578.578,0,0,1-.587.587H3.762a.578.578,0,0,1-.587-.587v-4.7A.578.578,0,0,1,3.762,9.524ZM4.349,10.7v3.524h9.985V10.7Zm12.921.587v2.349h.587a.588.588,0,0,0,.587-.587V11.873a.588.588,0,0,0-.587-.587Z" transform="translate(-2 -6)" fill="#00559a"/>
  <path id="icons_batteries-2" data-name="icons_batteries" d="M6.525,6a.587.587,0,1,0,0,1.175H17.685a.587.587,0,1,0,0-1.175Zm0,2.349h0Zm0,1.175h0Z" transform="translate(-4.763 -6)" fill="#db4a2d"/>
  <rect id="Rectangle_323" data-name="Rectangle 323" width="5.755" height="2.877" transform="translate(2.07 4.904)" fill="#db4a2d"/>
</svg>
